#!OML:ASF F:\VICON\USERDATA\INSTALL\rory3\rory3.ASF
:FULLY-SPECIFIED
:DEGREES
151
root 4.7259 18.2292 -1.3365 -4.98271 2.57188 -4.49732
lowerback 9.62551 -1.96574 0.496546
upperback 0.54796 -2.39343 3.37685
thorax -4.70241 -1.16102 3.56865
lowerneck -15.6214 -2.71184 -1.77577
upperneck 20.2458 -3.33725 0.0552249
head 8.9546 -1.6997 -0.0948501
rclavicle -4.59006e-014 6.36111e-015
rhumerus -37.5249 -29.6815 -69.5226
rradius 18.5537
rwrist 9.74745
rhand -17.2201 24.1481
rfingers 7.12502
rthumb 9.02297 -5.63895
lclavicle -4.59006e-014 6.36111e-015
lhumerus -33.3437 -6.50415 84.0226
lradius 31.5694
lwrist 5.58899
lhand -24.7444 23.6214
lfingers 7.12502
lthumb 1.75846 53.5939
rfemur -14.3857 6.26083 30.004
rtibia 27.9583
rfoot -5.49178 -7.468
rtoes 8.06258
lfemur -4.07503 -0.345471 -14.7997
ltibia 64.4887
lfoot 19.7843 -18.6416
ltoes -7.55151
152
root 4.72369 18.2562 -1.15187 -5.04604 2.32373 -4.5454
lowerback 9.55498 -1.78858 0.677877
upperback 0.638326 -2.14765 3.26399
thorax -4.59309 -1.04565 3.3092
lowerneck -15.7903 -2.79643 -1.86505
upperneck 20.1992 -3.49484 0.350064
head 8.9784 -1.74727 -0.00150802
rclavicle -1.64805e-014 0
rhumerus -36.8421 -28.5392 -70.7186
rradius 19.0983
rwrist 8.00471
rhand -17.492 23.5276
rfingers 7.12502
rthumb 8.76062 -6.27057
lclavicle -1.64805e-014 0
lhumerus -33.3395 -6.68201 84.0518
lradius 31.0932
lwrist 5.14009
lhand -24.9705 22.4858
lfingers 7.12502
lthumb 1.54002 52.46
rfemur -13.539 6.38299 30.1923
rtibia 27.9019
rfoot -6.00999 -7.30088
rtoes 9.64954
lfemur -5.46998 0.0270604 -14.7373
ltibia 66.0583
lfoot 16.7153 -16.0315
ltoes -9.24526
153
root 4.72127 18.2721 -0.969677 -4.95601 1.94625 -4.62187
lowerback 9.3333 -1.58422 0.829453
upperback 0.753577 -1.87152 3.2139
thorax -4.36911 -0.914801 3.12278
lowerneck -16.3051 -2.90365 -1.77645
upperneck 20.2834 -3.65097 0.326174
head 9.10102 -1.81327 -0.0523312
rclavicle 5.41688e-015 3.57812e-015
rhumerus -35.9792 -28.5718 -71.2299
rradius 19.0004
rwrist 7.97115
rhand -17.9616 23.042
rfingers 7.12502
rthumb 8.30742 -6.77466
lclavicle 5.41688e-015 3.57812e-015
lhumerus -33.2157 -6.72912 84.1208
lradius 30.5555
lwrist 5.02943
lhand -24.8481 22.5017
lfingers 7.12502
lthumb 1.65823 52.475
rfemur -12.9662 6.40874 30.424
rtibia 27.8815
rfoot -6.73671 -7.11844
rtoes 8.85728
lfemur -6.98171 0.503776 -14.6489
ltibia 67.4755
lfoot 15.5486 -15.1539
ltoes -6.37944
154
root 4.72025 18.2671 -0.800935 -5.01665 1.6745 -4.93537
lowerback 9.29341 -1.47304 1.18492
upperback 0.888078 -1.69092 3.23755
thorax -4.22457 -0.83293 2.91892
lowerneck -16.5176 -2.94156 -1.76535
upperneck 20.2417 -3.71254 0.374973
head 9.1269 -1.83463 -0.048248
rclavicle 3.49737e-015 -1.07344e-014
rhumerus -35.2322 -28.6388 -71.6925
rradius 18.9913
rwrist 8.13903
rhand -18.2541 23.3476
rfingers 7.12502
rthumb 8.02513 -6.48003
lclavicle 3.49737e-015 -1.07344e-014
lhumerus -33.055 -6.61712 84.1314
lradius 30.0547
lwrist 4.87826
lhand -25.047 22.7576
lfingers 7.12502
lthumb 1.46614 52.7323
rfemur -12.3152 6.39458 30.9014
rtibia 27.8882
rfoot -7.47164 -6.99444
rtoes 8.91575
lfemur -8.34886 0.835752 -14.2469
ltibia 68.811
lfoot 13.6741 -13.9735
ltoes -8.21117
155
root 4.71953 18.2384 -0.635821 -5.22449 1.35332 -4.87059
lowerback 9.49135 -1.28929 1.07684
upperback 0.941057 -1.45392 3.21781
thorax -4.2872 -0.713527 2.93426
lowerneck -16.2578 -2.96718 -1.87394
upperneck 20.0335 -3.73576 0.435846
head 9.01146 -1.84881 -0.00663242
rclavicle 1.95679e-015 -1.98785e-015
rhumerus -34.8014 -27.783 -72.2817
rradius 19.3863
rwrist 7.51455
rhand -18.2839 23.2249
rfingers 7.12502
rthumb 7.99629 -6.60382
lclavicle 1.95679e-015 -1.98785e-015
lhumerus -32.9539 -6.25691 84.134
lradius 29.7314
lwrist 3.82813
lhand -26.1463 25.4902
lfingers 7.12502
lthumb 0.404413 55.4696
rfemur -11.5684 6.45869 30.9971
rtibia 28.04
rfoot -7.84005 -6.90768
rtoes 9.42207
lfemur -9.40182 1.36557 -14.207
ltibia 70.0057
lfoot 11.4215 -12.6884
ltoes -9.51566
